<svg width="18" height="18" viewBox="0 0 18 18" fill="none" xmlns="http://www.w3.org/2000/svg">
<g id="carbon:logo-instagram">
<path id="Vector" d="M12.6034 6.20667C13.0507 6.20667 13.4134 5.84402 13.4134 5.39667C13.4134 4.94932 13.0507 4.58667 12.6034 4.58667C12.156 4.58667 11.7934 4.94932 11.7934 5.39667C11.7934 5.84402 12.156 6.20667 12.6034 6.20667Z" fill="white"/>
<path id="Vector_2" d="M9 5.53394C8.31447 5.53394 7.64433 5.73722 7.07433 6.11808C6.50432 6.49895 6.06006 7.04028 5.79772 7.67363C5.53538 8.30698 5.46674 9.00391 5.60048 9.67627C5.73422 10.3486 6.06433 10.9662 6.54908 11.451C7.03383 11.9357 7.65143 12.2658 8.32379 12.3996C8.99616 12.5333 9.69308 12.4647 10.3264 12.2023C10.9598 11.94 11.5011 11.4957 11.882 10.9257C12.2628 10.3557 12.4661 9.6856 12.4661 9.00006C12.4661 8.08079 12.1009 7.19916 11.4509 6.54914C10.8009 5.89912 9.91927 5.53394 9 5.53394ZM9 11.2501C8.55499 11.2501 8.11998 11.1181 7.74997 10.8709C7.37996 10.6236 7.09157 10.2722 6.92127 9.8611C6.75097 9.44996 6.70642 8.99756 6.79323 8.56111C6.88005 8.12465 7.09434 7.72374 7.40901 7.40907C7.72368 7.0944 8.12459 6.88011 8.56105 6.79329C8.99751 6.70648 9.4499 6.75103 9.86104 6.92133C10.2722 7.09163 10.6236 7.38002 10.8708 7.75003C11.118 8.12004 11.25 8.55505 11.25 9.00006C11.25 9.5968 11.0129 10.1691 10.591 10.5911C10.169 11.013 9.59674 11.2501 9 11.2501Z" fill="white"/>
<path id="Vector_3" d="M9 3.46613C10.8022 3.46613 11.016 3.47287 11.7276 3.5055C12.1555 3.51058 12.5795 3.58916 12.9808 3.73781C13.272 3.85014 13.5364 4.02218 13.7571 4.24287C13.9778 4.46356 14.1499 4.728 14.2622 5.01919C14.4108 5.42055 14.4894 5.84446 14.4945 6.27244C14.5271 6.984 14.5339 7.19775 14.5339 9.00056C14.5339 10.8034 14.5271 11.016 14.4945 11.7276C14.4894 12.1555 14.4108 12.5795 14.2622 12.9808C14.1499 13.272 13.9778 13.5364 13.7571 13.7571C13.5364 13.9778 13.272 14.1499 12.9808 14.2622C12.5795 14.4108 12.1555 14.4894 11.7276 14.4945C11.016 14.5271 10.8022 14.5339 9 14.5339C7.19775 14.5339 6.984 14.5271 6.27244 14.4945C5.84446 14.4894 5.42055 14.4108 5.01919 14.2622C4.728 14.1499 4.46356 13.9778 4.24287 13.7571C4.02218 13.5364 3.85014 13.272 3.73781 12.9808C3.58916 12.5795 3.51058 12.1555 3.5055 11.7276C3.47287 11.016 3.46613 10.8022 3.46613 9C3.46613 7.19775 3.47287 6.984 3.5055 6.27244C3.51058 5.84446 3.58916 5.42055 3.73781 5.01919C3.85014 4.728 4.02218 4.46356 4.24287 4.24287C4.46356 4.02218 4.728 3.85014 5.01919 3.73781C5.42055 3.58916 5.84446 3.51058 6.27244 3.5055C6.984 3.47287 7.19775 3.46613 9 3.46613ZM9 2.25C7.16681 2.25 6.93675 2.25788 6.21675 2.2905C5.65694 2.3018 5.10309 2.40793 4.57875 2.60438C4.13028 2.77779 3.723 3.043 3.383 3.383C3.043 3.723 2.77779 4.13028 2.60438 4.57875C2.40787 5.10327 2.30174 5.65731 2.2905 6.21731C2.25788 6.93731 2.25 7.16625 2.25 9C2.25 10.8337 2.25788 11.0632 2.2905 11.7832C2.3018 12.3431 2.40793 12.8969 2.60438 13.4213C2.77779 13.8697 3.043 14.277 3.383 14.617C3.723 14.957 4.13028 15.2222 4.57875 15.3956C5.10327 15.5921 5.65731 15.6983 6.21731 15.7095C6.93731 15.7421 7.16681 15.75 9 15.75C10.8332 15.75 11.0632 15.7421 11.7832 15.7095C12.3433 15.6983 12.8973 15.5921 13.4218 15.3956C13.8703 15.2222 14.2776 14.957 14.6176 14.617C14.9576 14.277 15.2228 13.8697 15.3962 13.4213C15.5925 12.8967 15.6984 12.3427 15.7095 11.7827C15.7421 11.0627 15.75 10.8337 15.75 9C15.75 7.16625 15.7421 6.93675 15.7095 6.21675C15.6982 5.65694 15.5921 5.10309 15.3956 4.57875C15.2222 4.13028 14.957 3.723 14.617 3.383C14.277 3.043 13.8697 2.77779 13.4213 2.60438C12.8967 2.40806 12.3427 2.30212 11.7827 2.29106C11.0627 2.25731 10.8337 2.25 9 2.25Z" fill="white"/>
</g>
</svg>
