<svg width="241" height="40" viewBox="0 0 241 40" fill="none" xmlns="http://www.w3.org/2000/svg">
<g id="Group 6431">
<path id="Vector" d="M47.4529 0.775337L45.0629 0.647878C37.839 0.647878 33.1617 5.31787 30.5661 10.7445L24.2782 24.25C22.6141 27.4691 20.3804 28.8549 17.3671 28.8549C13.056 28.8549 9.52007 24.8792 9.52007 20.0221C9.52007 15.165 13.0717 11.1838 17.3604 11.1838C19.9068 11.1838 21.7787 12.0028 23.2842 14.0232L27.908 4.74835C24.8041 2.03738 21.0767 0.580126 17.2532 0.58279C7.74204 0.58279 0 9.22579 0 19.9543C0 28.977 5.50833 36.5515 12.9935 38.6668C14.3449 39.0465 15.799 39.2987 17.2554 39.2987H17.6195C23.2842 39.1712 28.6898 36.9664 31.3389 31.1628L38.3036 15.9569C39.6037 13.4971 40.7987 12.4232 42.6147 11.7262C43.4722 11.3953 44.3663 11.2252 45.2661 11.2218C49.5772 11.2218 53.1131 15.1975 53.1131 20.0546C53.1131 24.9117 49.5794 28.8875 45.2661 28.8875C41.7324 28.8875 39.5478 27.8135 37.4481 24.6568L32.9807 33.552C36.099 37.1481 40.5173 39.4207 45.3488 39.4207C54.8599 39.4207 62.6019 30.7777 62.6019 20.0492C62.6533 10.0801 56.0013 1.87911 47.4261 0.740085L47.4529 0.775337Z" fill="#3B72B9"/>
<path id="Vector_2" fill-rule="evenodd" clip-rule="evenodd" d="M80.5584 38.2544C78.3247 38.2544 76.3479 37.9398 74.4783 37.2455C72.6064 36.676 71.1009 35.6672 69.8009 34.2163C68.5009 32.7654 67.4622 31.0623 66.734 28.9171C66.0058 26.7719 65.6953 24.1847 65.6953 21.2206V1.40702H75.986V21.1555C75.986 23.4281 76.4551 25.0065 77.286 26.0099C78.117 27.0133 79.2606 27.5882 80.6634 27.5882C82.0662 27.5882 83.1071 27.1462 84.0408 26.1374C84.8717 25.1285 85.3408 23.5501 85.3408 21.405V1.40431H95.6315V21.028C95.6315 24.182 95.2674 26.7692 94.5928 28.9144C93.8646 31.0568 92.8282 32.8901 91.5259 34.2136C90.2259 35.6645 88.6154 36.6733 86.8485 37.2428C84.8739 38.0022 82.7944 38.2517 80.5607 38.2517L80.5584 38.2544Z" fill="#3B72B9"/>
<path id="Vector_3" d="M181.851 19.9542C181.851 7.7504 175.873 0.20574 165.478 0.20574C155.656 0.20574 148.848 7.33818 148.848 19.1976C148.848 31.4014 156.228 38.0646 166.154 38.0646C172.963 38.0646 179.718 34.3411 181.382 25.8608H171.196C170.001 28.3206 168.39 29.1152 166.154 29.1152C161.687 29.1152 159.502 26.4032 159.502 21.2288H181.851V19.9542ZM159.764 14.0855C160.492 10.4895 163.038 8.53415 166.103 8.53415C168.909 8.53415 171.611 10.6766 172.08 14.0855H159.764ZM229.976 1.52917V4.78352C227.742 1.75427 224.101 0.178619 220.728 0.178619C211.838 0.178619 205.763 8.884 205.763 19.0457C205.763 29.2074 211.95 38.0375 220.833 38.0375C224.367 38.0375 227.952 36.4592 229.824 32.8631H229.929V36.8388H240.584V1.50206L229.976 1.52917ZM223.427 27.2738C219.116 27.2738 216.618 23.8676 216.618 19.2599C216.618 14.9696 219.216 11.2461 223.427 11.2461C227.738 11.2461 230.235 14.8422 230.235 19.2599C230.184 23.8025 227.74 27.2738 223.427 27.2738Z" fill="#3B72B9"/>
<path id="Vector_4" fill-rule="evenodd" clip-rule="evenodd" d="M142.142 10.6791C140.478 9.67029 138.295 8.97603 136.424 8.97603C135.229 8.97603 133.149 9.54554 133.149 11.4358C133.149 13.8955 136.424 14.1477 137.929 14.5898C142.843 15.7288 146.607 18.5655 146.607 25.1935C146.607 34.6854 139.488 38.5092 132.472 38.5092C128.262 38.5092 124.051 37.0583 120.415 34.3437L124.261 25.4485C126.392 27.279 129.979 29.0445 132.682 29.0445C133.982 29.0445 135.957 28.3502 135.957 26.3325C135.957 23.6206 132.682 23.4931 129.305 22.3568C126.03 21.348 122.653 19.3276 122.653 12.865C122.653 4.1596 129.305 0.308624 135.832 0.308624C139.209 0.308624 142.64 0.878133 145.653 2.58124L142.142 10.6791ZM123.691 0.962204C123.066 0.962204 123.848 0.962204 120.106 0.962204C116.365 0.962204 112.518 2.98261 110.39 7.27292H110.285V1.53172H99.6299V37.1153H110.285V22.8558C110.285 16.7349 112.728 12.13 118.706 12.13L123.696 0.962204H123.691ZM208.61 0.962204C207.985 0.962204 208.767 0.962204 205.025 0.962204C201.284 0.962204 197.437 2.98261 195.309 7.27292H195.204V1.53172H184.549V37.1153H195.204V22.8558C195.204 16.7349 197.647 12.13 203.625 12.13L208.615 0.962204H208.61Z" fill="#3B72B9"/>
</g>
</svg>
