<svg width="193" height="71" viewBox="0 0 193 71" fill="none" xmlns="http://www.w3.org/2000/svg">
<g id="Group">
<path id="Vector" d="M29.9288 16.7076L14.9623 8.35382L0 16.7076V8.35382L14.9644 0L29.9309 8.35382V16.7076H29.9288Z" fill="#A435F0"/>
<path id="Vector_2" d="M0 23.7226H7.839V42.1377C7.839 46.8954 11.5135 49.2146 14.9644 49.2146C18.4451 49.2146 22.0919 46.8336 22.0919 42.0739V23.7226H29.9309V42.5764C29.9309 46.9593 28.5059 50.3412 25.6557 52.6603C22.8034 54.9774 19.2418 56.106 14.8984 56.106C10.5592 56.106 6.99546 54.9794 4.21133 52.6603C1.42508 50.3432 0 47.087 0 42.7638V23.7226ZM97.7021 46.6091C95.3291 48.6523 92.6259 49.6533 89.5436 49.6533C83.92 49.6533 80.1496 46.5556 79.7235 41.7587H105.051C105.051 41.7587 105.222 40.2099 105.222 38.7558C105.222 34.2452 103.73 30.4864 100.684 27.4176C97.7064 24.3488 93.821 22.8452 89.0899 22.8452C84.1031 22.8452 80.0196 24.3488 76.7796 27.4176C73.6057 30.4864 71.9868 34.4945 71.9868 39.5076V39.7547C71.9868 44.704 73.6057 48.6502 76.7796 51.5955C79.9536 54.5387 84.1649 56.0422 89.2837 56.0422C95.2354 56.0422 99.9707 53.7725 103.524 49.8592L97.7021 46.6091ZM82.8037 31.2382C84.5505 29.9221 86.6913 29.2342 89.0877 29.2342C91.3542 29.2342 93.233 29.9221 94.8541 31.302C96.4006 32.5584 97.2356 34.1011 97.308 35.8744H79.9238C80.1751 34.0413 81.1337 32.4966 82.8059 31.2403L82.8037 31.2382ZM176.612 60.2974C173.432 67.5575 170.104 70.027 165.003 70.027H161.466V63.3085H164.325C166.08 63.3085 167.712 62.6701 169.267 59.2017L170.822 55.7291L157.411 23.7226H165.38L174.904 46.7739L184.687 23.7226H192.654L176.614 60.2974H176.612ZM60.4477 11.6347V26.5814C57.8787 24.357 53.8825 23.0327 50.0184 23.0327C45.4172 23.0327 41.5318 24.598 38.3579 27.7904C35.2478 30.9231 33.6928 34.8055 33.6928 39.5035C33.6928 44.2035 35.2478 48.0859 38.3579 51.2804C41.5318 54.413 45.4194 55.9804 50.0184 55.9804C55.3225 55.9804 58.6754 53.964 60.4477 52.3843V55.2904H68.2228V11.6368H60.4477V11.6347ZM58.1151 46.397C56.2363 48.2136 53.8399 49.1548 51.0536 49.1548C48.2674 49.1548 46.0009 48.2136 44.1221 46.397C42.3115 44.5804 41.4019 42.2633 41.4019 39.5076C41.4019 36.7497 42.3093 34.4327 44.1221 32.6161C46.0009 30.7995 48.2674 29.8603 51.0536 29.8603C53.8399 29.8603 56.2363 30.7995 58.1151 32.6161C60.0578 34.4327 61.0335 36.7497 61.0335 39.5076C61.0335 42.2633 60.0578 44.5804 58.1151 46.397ZM145.324 23.0965C139.419 23.0965 136.35 25.4651 134.247 27.7471C133.406 26.1962 131.037 23.0965 125.503 23.0965C120.825 23.0965 118.069 25.3827 116.693 27.0098V23.7268H108.986V55.2946H116.693V37.1287C116.693 32.8694 119.415 29.8006 123.04 29.8006C126.736 29.8006 128.873 32.4946 128.873 36.8156V55.2925H136.582V37.1266C136.582 32.8056 139.236 29.7985 143.058 29.7985C146.751 29.7985 148.888 32.4925 148.888 36.8115V55.2904H156.663V35.7488C156.663 27.5185 152.087 23.0986 145.324 23.0986V23.0965Z" fill="black"/>
</g>
</svg>
