<svg width="195" height="65" viewBox="0 0 195 65" fill="none" xmlns="http://www.w3.org/2000/svg">
<g id="Group 6432">
<path id="Vector" d="M155.042 48.5923H162.041V0.920959H155.042V48.5923Z" fill="#3CBA54"/>
<path id="Vector_2" d="M66.3593 10.5053C57.0538 10.5053 50.3853 19.1058 50.3853 29.1322C50.3853 39.3106 56.8509 48.0695 66.468 48.0695C75.1722 48.0695 82.3025 40.2055 82.3025 29.3506C82.3025 16.9327 74.0076 10.5032 66.3593 10.5032V10.5053ZM66.4498 17.8833C71.0247 17.8833 75.3605 22.2574 75.3605 29.3035C75.3605 36.1975 71.0428 40.698 66.4281 40.698C61.357 40.698 57.3725 35.8978 57.3725 29.2478C57.3725 22.7391 61.3208 17.8833 66.4643 17.8833H66.4498Z" fill="#DB3236"/>
<path id="Vector_3" d="M47.7827 23.233H25.1075V30.0822H41.1902C40.3933 39.6692 32.5457 43.7842 25.1347 43.7842C22.7869 43.7947 20.4605 43.329 18.2915 42.4142C16.1224 41.4995 14.1541 40.154 12.5015 38.4564C10.8488 36.7588 9.54497 34.743 8.666 32.5268C7.78703 30.3106 7.35057 27.9384 7.38211 25.5486C7.38211 15.1799 15.2677 7.19688 25.1564 7.19688C32.7848 7.19688 37.28 12.1471 37.28 12.1471L41.9889 7.18028C41.9889 7.18028 35.9398 0.327423 24.9101 0.327423C10.8649 0.327423 0 12.3941 0 25.4269C0 38.1979 10.2201 50.6518 25.2651 50.6518C38.4989 50.6518 48.1865 41.4225 48.1865 27.7757C48.1865 24.896 47.7754 23.233 47.7754 23.233H47.7827Z" fill="#4885ED"/>
<path id="Vector_4" d="M101.098 10.5053C91.7926 10.5053 85.124 19.1058 85.124 29.1322C85.124 39.3106 91.5897 48.0695 101.207 48.0695C109.911 48.0695 117.041 40.2055 117.041 29.3506C117.041 16.9327 108.746 10.5032 101.098 10.5032V10.5053ZM101.189 17.8833C105.763 17.8833 110.099 22.2574 110.099 29.3035C110.099 36.1975 105.782 40.698 101.167 40.698C96.0958 40.698 92.1113 35.8978 92.1113 29.2478C92.1113 22.7391 96.0595 17.8833 101.203 17.8833H101.189Z" fill="#F4C20D"/>
<path id="Vector_5" d="M135.171 10.527C126.63 10.527 119.918 19.3694 119.918 29.2951C119.918 40.5997 127.7 48.0975 135.023 48.0975C139.55 48.0975 141.959 45.9715 143.716 43.5329V47.2369C143.716 53.7177 140.387 57.5994 135.363 57.5994C130.509 57.5994 128.075 53.3323 127.213 50.913L121.106 53.9104C123.272 59.3272 127.633 64.973 135.414 64.973C143.926 64.973 150.377 58.6506 150.377 45.3892V11.6553H143.741V14.8368C141.695 12.2248 138.891 10.527 135.175 10.527H135.171ZM135.787 17.8921C139.974 17.8921 144.274 22.1184 144.274 29.3358C144.274 36.6731 139.982 40.7153 135.695 40.7153C131.141 40.7153 126.905 36.3476 126.905 29.4043C126.905 22.1934 131.306 17.8899 135.787 17.8899V17.8921Z" fill="#4885ED"/>
<path id="Vector_6" d="M180.036 10.4819C171.98 10.4819 165.216 18.0611 165.216 29.2372C165.216 41.0685 172.755 48.0846 180.791 48.0846C187.514 48.0846 191.658 43.7383 194.103 39.8417L188.61 35.5211C187.185 38.1331 184.801 40.6917 180.826 40.6917C176.36 40.6917 174.306 37.8013 173.033 34.9966L194.337 24.5484L193.25 21.4867C191.193 15.4919 186.391 10.4819 180.038 10.4819H180.036ZM180.313 17.7057C183.216 17.7057 185.305 19.5298 186.192 21.718L171.964 28.7469C171.348 23.3045 175.713 17.7057 180.295 17.7057H180.313Z" fill="#DB3236"/>
</g>
</svg>
