<svg width="15" height="15" viewBox="0 0 15 15" fill="none" xmlns="http://www.w3.org/2000/svg">
<g id="ion:logo-tiktok">
<path id="Vector" d="M12.0759 3.47637C11.981 3.42731 11.8886 3.37353 11.799 3.31523C11.5387 3.1431 11.2999 2.94028 11.088 2.71113C10.5577 2.10439 10.3597 1.48887 10.2867 1.05791H10.2897C10.2287 0.700195 10.2539 0.46875 10.2577 0.46875H7.84249V9.80801C7.84249 9.9334 7.84249 10.0573 7.83722 10.1798C7.83722 10.195 7.83576 10.2091 7.83488 10.2255C7.83488 10.2322 7.83488 10.2393 7.83341 10.2463V10.2516C7.80795 10.5867 7.70054 10.9104 7.52061 11.1942C7.34069 11.478 7.09377 11.7133 6.80158 11.8793C6.49705 12.0525 6.15262 12.1434 5.80226 12.143C4.67697 12.143 3.76496 11.2254 3.76496 10.0922C3.76496 8.95898 4.67697 8.04141 5.80226 8.04141C6.01527 8.04121 6.22697 8.07473 6.42951 8.14072L6.43244 5.68154C5.8176 5.60212 5.19298 5.65099 4.59797 5.82505C4.00297 5.99911 3.4505 6.2946 2.9754 6.69287C2.55912 7.05457 2.20914 7.48614 1.94123 7.96816C1.83927 8.14395 1.4546 8.85029 1.40802 9.99668C1.37873 10.6474 1.57414 11.3215 1.6673 11.6001V11.606C1.72589 11.77 1.95294 12.3299 2.32296 12.8019C2.62133 13.1804 2.97385 13.513 3.36915 13.7889V13.783L3.37501 13.7889C4.54425 14.5834 5.84064 14.5312 5.84064 14.5312C6.06505 14.5222 6.81681 14.5312 7.67052 14.1267C8.6174 13.6781 9.15646 13.0099 9.15646 13.0099C9.50084 12.6106 9.77468 12.1555 9.96622 11.6643C10.1848 11.0897 10.2577 10.4007 10.2577 10.1253V5.17061C10.287 5.18818 10.6773 5.44629 10.6773 5.44629C10.6773 5.44629 11.2395 5.80664 12.1166 6.04131C12.7459 6.2083 13.5938 6.24346 13.5938 6.24346V3.8458C13.2967 3.87803 12.6935 3.78428 12.0759 3.47637Z" fill="white"/>
</g>
</svg>
