<svg width="27" height="40" viewBox="0 0 27 40" fill="none" xmlns="http://www.w3.org/2000/svg">
<path id="path26" d="M23.0389 31.2646L22.5189 31.5598L23.0338 31.2524L18.9833 21.6147C18.4374 20.35 17.841 19.6068 17.374 19.1832C17.8061 18.7137 18.3766 17.949 18.9251 16.7669L26.6042 0.201504H18.7919L12.1865 14.7268C11.9769 15.1382 11.7803 15.3018 11.4698 15.4348C11.1554 15.5603 10.7014 15.5924 10.1296 15.5893H7.29775V4.50801C7.29775 3.17294 7.05713 2.05807 6.4103 1.27966C5.75701 0.502781 4.80876 0.201504 3.65482 0.201504H0.142548V7.96729V14.0447V39.3806H7.29775V22.8718H9.76863C10.3935 22.8718 10.9135 22.8948 11.2693 23.0232C11.6315 23.1609 11.8359 23.326 12.048 23.7833L17.2679 36.1752C17.8061 37.4659 18.4154 38.3315 19.2537 38.8193C20.0907 39.2995 21.0325 39.3775 22.2485 39.3806H26.581L26.1385 38.3759C26.1346 38.3682 23.4762 32.3489 23.0389 31.2646Z" fill="#272932"/>
</svg>
