<svg width="32" height="40" viewBox="0 0 32 40" fill="none" xmlns="http://www.w3.org/2000/svg">
<path id="path22" d="M16.4574 10.8431C16.6851 11.8922 16.9555 13.0744 17.2129 13.9919L19.6993 22.5667H13.2129L15.6993 13.995C15.9594 13.0744 16.2323 11.8922 16.4574 10.8431ZM19.9749 0.200729H12.9878L12.8494 0.651875L0.946503 39.3768H5.33199C6.50016 39.3768 7.39148 39.207 8.11205 38.606C8.83002 38.0004 9.24658 37.0767 9.61786 35.838L11.4626 29.6871H21.4522L23.2996 35.8349C23.6734 37.0798 24.1029 38.0096 24.8338 38.6091C25.5609 39.207 26.46 39.3768 27.6281 39.3768H31.9683L19.9749 0.200729Z" fill="#272932"/>
</svg>
