<svg width="31" height="41" viewBox="0 0 31 41" fill="none" xmlns="http://www.w3.org/2000/svg">
<path id="path54" d="M27.0833 10.8726C25.8155 7.6794 22.2295 4.02591 16.9695 4.02591C9.66941 4.02591 4.05495 10.7778 4.05495 20.1829C4.05495 29.478 9.62414 36.9486 17.1131 36.9486C20.6784 36.9486 23.5361 35.5478 25.3149 33.9971C27.4779 32.1161 29.7495 34.2923 29.7495 34.2923C29.7495 34.2923 25.2088 40.596 17.0652 40.596C7.42363 40.596 0.637115 31.5242 0.637115 20.1829C0.637115 8.95178 7.60991 0.376999 16.8777 0.376999C21.5581 0.376999 27.3278 2.83152 29.5141 8.69791C30.5374 11.3589 30.668 12.6236 30.668 12.6236C30.668 12.6236 27.9345 13.0105 27.0833 10.8726Z" fill="#272932"/>
</svg>
