<svg width="34" height="40" viewBox="0 0 34 40" fill="none" xmlns="http://www.w3.org/2000/svg">
<path id="path46" d="M2.9659 0.427834H6.288L14.993 23.0569C15.7886 25.0495 16.6334 27.6478 16.6334 27.6478H16.7265C16.7265 27.6478 17.5674 25.0495 18.3151 23.0569L27.0227 0.427834H30.3448L33.2102 39.324H32.2646C30.2517 39.324 29.5492 38.3254 29.4095 35.9473L27.8661 12.3242C27.7225 10.2184 27.7226 6.89982 27.7226 6.89982H27.6294C27.6294 6.89982 26.7394 10.3316 25.9438 12.3242L18.1314 32.0736H15.1845L7.41347 12.3242C6.66315 10.3866 5.68259 6.78971 5.68259 6.78971H5.58815C5.58815 6.78971 5.58814 10.2184 5.44713 12.3242L3.90121 35.9473C3.76149 38.3254 3.05904 39.324 1.04611 39.324H0.280273L2.9659 0.427834Z" fill="#272932"/>
</svg>
