<svg width="27" height="40" viewBox="0 0 27 40" fill="none" xmlns="http://www.w3.org/2000/svg">
<path id="path34" d="M26.1504 0.200737H23.3135C22.1556 0.200737 21.2087 0.502014 20.5593 1.2789C19.9073 2.05884 19.6667 3.17216 19.6667 4.50877V21.8143C19.6667 22.3939 19.6899 23.0332 19.7223 23.6632C19.285 22.66 18.7857 21.5926 18.2954 20.7423L7.76632 0.200737H0.964294V27.7648V31.611V39.3798H4.38343H4.39377C5.53995 39.3798 6.48303 39.0969 7.13503 38.3261C7.78962 37.5493 8.02635 36.4344 8.02635 35.0703V17.8198C8.02635 17.2509 8.00695 16.6193 7.9759 15.9984C8.41057 17.0047 8.9138 18.066 9.40668 18.9025L19.9758 39.3798H26.7287V14.0455V7.96958V0.200737H26.1504Z" fill="#272932"/>
</svg>
