<svg width="15" height="15" viewBox="0 0 15 15" fill="none" xmlns="http://www.w3.org/2000/svg">
<g id="uim:twitter-alt">
<path id="Vector" d="M12.7969 4.87804C12.8031 4.99367 12.8031 5.10929 12.8031 5.21867C12.8016 5.93023 12.6978 6.63787 12.495 7.31992C12.0673 8.89191 11.1281 10.2766 9.82572 11.2554C8.52336 12.2342 6.93207 12.7512 5.30314 12.7249C3.86943 12.7265 2.46582 12.3137 1.26126 11.5362C1.47006 11.5619 1.68026 11.5746 1.89064 11.5743C3.07717 11.5754 4.22951 11.1769 5.16189 10.443C4.61275 10.4327 4.08051 10.2514 3.63932 9.92426C3.19814 9.59713 2.87 9.14051 2.70064 8.61804C2.86419 8.64606 3.02971 8.6611 3.19564 8.66304C3.43233 8.66393 3.66797 8.63153 3.89564 8.56679C3.33172 8.45497 2.82011 8.16112 2.43938 7.73037C2.05865 7.29962 1.82985 6.75579 1.78814 6.18242C1.77757 6.11652 1.77338 6.04975 1.77564 5.98304V5.95117C2.14182 6.15488 2.55176 6.26723 2.97064 6.27867C2.60982 6.0384 2.3141 5.71256 2.10984 5.33022C1.90558 4.94787 1.79914 4.5209 1.80001 4.08742C1.7996 3.62058 1.92157 3.16179 2.15376 2.75679C2.81567 3.57246 3.64196 4.23957 4.57882 4.71467C5.51568 5.18978 6.54211 5.46223 7.59126 5.51429C7.45891 4.94893 7.51687 4.35569 7.75614 3.82663C7.99542 3.29758 8.40263 2.86229 8.91458 2.58833C9.42654 2.31437 10.0146 2.21705 10.5875 2.31147C11.1604 2.40589 11.6862 2.68678 12.0831 3.11054C12.6749 2.99382 13.2423 2.77651 13.7606 2.46804C13.7829 2.9155 13.7082 3.36248 13.5418 3.77842C13.3754 4.19436 13.121 4.56945 12.7963 4.87804H12.7969Z" fill="white"/>
</g>
</svg>
